<?xml version="1.0" encoding="UTF-8" standalone="no"?>
<!DOCTYPE svg PUBLIC "-//W3C//DTD SVG 1.1//EN"
 "http://www.w3.org/Graphics/SVG/1.1/DTD/svg11.dtd">
<!-- Generated by graphviz version 14.0.4 (20251115.1723)
 -->
<!-- Title: G Pages: 1 -->
<svg width="789pt" height="274pt"
 viewBox="0.00 0.00 789.00 274.00" xmlns="http://www.w3.org/2000/svg" xmlns:xlink="http://www.w3.org/1999/xlink">
<g id="graph0" class="graph" transform="scale(1 1) rotate(0) translate(4 270)">
<title>G</title>
<polygon fill="white" stroke="none" points="-4,4 -4,-270 784.75,-270 784.75,4 -4,4"/>
<g id="clust1" class="cluster">
<title>cluster_module.ec2_instance</title>
<polygon fill="none" stroke="black" points="439,-46 439,-121 772.75,-121 772.75,-46 439,-46"/>
<text xml:space="preserve" text-anchor="middle" x="605.88" y="-103.7" font-family="sans-serif" font-size="14.00">module.ec2_instance</text>
</g>
<g id="clust2" class="cluster">
<title>cluster_module.security_group</title>
<polygon fill="none" stroke="black" points="203.25,-46 203.25,-121 419,-121 419,-46 203.25,-46"/>
<text xml:space="preserve" text-anchor="middle" x="311.12" y="-103.7" font-family="sans-serif" font-size="14.00">module.security_group</text>
</g>
<g id="clust3" class="cluster">
<title>cluster_module.ssh_key</title>
<polygon fill="none" stroke="black" points="8,-129 8,-258 410.38,-258 410.38,-129 8,-129"/>
<text xml:space="preserve" text-anchor="middle" x="209.19" y="-240.7" font-family="sans-serif" font-size="14.00">module.ssh_key</text>
</g>
<!-- data.aws_subnets.default -->
<g id="node1" class="node">
<title>data.aws_subnets.default</title>
<polygon fill="none" stroke="black" points="395.62,-36 226.62,-36 226.62,0 395.62,0 395.62,-36"/>
<text xml:space="preserve" text-anchor="middle" x="311.12" y="-12.2" font-family="sans-serif" font-size="14.00">data.aws_subnets.default</text>
</g>
<!-- data.aws_vpc.default -->
<g id="node2" class="node">
<title>data.aws_vpc.default</title>
<polygon fill="none" stroke="black" points="167,-63 24.25,-63 24.25,-27 167,-27 167,-63"/>
<text xml:space="preserve" text-anchor="middle" x="95.62" y="-39.2" font-family="sans-serif" font-size="14.00">data.aws_vpc.default</text>
</g>
<!-- data.aws_subnets.default&#45;&gt;data.aws_vpc.default -->
<g id="edge1" class="edge">
<title>data.aws_subnets.default&#45;&gt;data.aws_vpc.default</title>
<path fill="none" stroke="black" d="M226.36,-28.59C210.66,-30.58 194.26,-32.65 178.62,-34.63"/>
<polygon fill="black" stroke="black" points="178.36,-31.14 168.88,-35.86 179.24,-38.08 178.36,-31.14"/>
</g>
<!-- module.ec2_instance.data.aws_ami.redhat -->
<g id="node3" class="node">
<title>module.ec2_instance.data.aws_ami.redhat</title>
<polygon fill="none" stroke="black" points="589,-90 447,-90 447,-54 589,-54 589,-90"/>
<text xml:space="preserve" text-anchor="middle" x="518" y="-66.2" font-family="sans-serif" font-size="14.00">data.aws_ami.redhat</text>
</g>
<!-- module.security_group.aws_security_group.redhat_sg -->
<g id="node5" class="node">
<title>module.security_group.aws_security_group.redhat_sg</title>
<polygon fill="none" stroke="black" points="411,-90 211.25,-90 211.25,-54 411,-54 411,-90"/>
<text xml:space="preserve" text-anchor="middle" x="311.12" y="-66.2" font-family="sans-serif" font-size="14.00">aws_security_group.redhat_sg</text>
</g>
<!-- module.ec2_instance.data.aws_ami.redhat&#45;&gt;module.security_group.aws_security_group.redhat_sg -->
<g id="edge2" class="edge">
<title>module.ec2_instance.data.aws_ami.redhat&#45;&gt;module.security_group.aws_security_group.redhat_sg</title>
<path fill="none" stroke="black" d="M446.78,-72C438.9,-72 430.73,-72 422.49,-72"/>
<polygon fill="black" stroke="black" points="422.75,-68.5 412.75,-72 422.75,-75.5 422.75,-68.5"/>
</g>
<!-- module.ssh_key.aws_key_pair.ec2_key_pair -->
<g id="node6" class="node">
<title>module.ssh_key.aws_key_pair.ec2_key_pair</title>
<polygon fill="none" stroke="black" points="402.38,-173 219.88,-173 219.88,-137 402.38,-137 402.38,-173"/>
<text xml:space="preserve" text-anchor="middle" x="311.12" y="-149.2" font-family="sans-serif" font-size="14.00">aws_key_pair.ec2_key_pair</text>
</g>
<!-- module.ec2_instance.data.aws_ami.redhat&#45;&gt;module.ssh_key.aws_key_pair.ec2_key_pair -->
<g id="edge3" class="edge">
<title>module.ec2_instance.data.aws_ami.redhat&#45;&gt;module.ssh_key.aws_key_pair.ec2_key_pair</title>
<path fill="none" stroke="black" d="M487.38,-90.26C468.37,-101.42 442.85,-115.35 419,-125 411.9,-127.88 404.42,-130.58 396.86,-133.1"/>
<polygon fill="black" stroke="black" points="396.04,-129.69 387.59,-136.08 398.18,-136.35 396.04,-129.69"/>
</g>
<!-- module.ssh_key.local_file.private_key -->
<g id="node7" class="node">
<title>module.ssh_key.local_file.private_key</title>
<polygon fill="none" stroke="black" points="381.75,-227 240.5,-227 240.5,-191 381.75,-191 381.75,-227"/>
<text xml:space="preserve" text-anchor="middle" x="311.12" y="-203.2" font-family="sans-serif" font-size="14.00">local_file.private_key</text>
</g>
<!-- module.ec2_instance.data.aws_ami.redhat&#45;&gt;module.ssh_key.local_file.private_key -->
<g id="edge4" class="edge">
<title>module.ec2_instance.data.aws_ami.redhat&#45;&gt;module.ssh_key.local_file.private_key</title>
<path fill="none" stroke="black" d="M505.82,-90.25C489.74,-114.92 457.71,-158.52 419,-182 410.94,-186.89 402.03,-190.89 392.9,-194.18"/>
<polygon fill="black" stroke="black" points="391.96,-190.8 383.54,-197.24 394.13,-197.45 391.96,-190.8"/>
</g>
<!-- module.ec2_instance.aws_instance.redhat -->
<g id="node4" class="node">
<title>module.ec2_instance.aws_instance.redhat</title>
<polygon fill="none" stroke="black" points="764.75,-90 625,-90 625,-54 764.75,-54 764.75,-90"/>
<text xml:space="preserve" text-anchor="middle" x="694.88" y="-66.2" font-family="sans-serif" font-size="14.00">aws_instance.redhat</text>
</g>
<!-- module.ec2_instance.aws_instance.redhat&#45;&gt;data.aws_subnets.default -->
<g id="edge5" class="edge">
<title>module.ec2_instance.aws_instance.redhat&#45;&gt;data.aws_subnets.default</title>
<path fill="none" stroke="black" d="M628.48,-53.5C615.48,-50.3 601.87,-47.27 589,-45 528.94,-34.41 460.77,-27.69 407.1,-23.61"/>
<polygon fill="black" stroke="black" points="407.62,-20.14 397.39,-22.89 407.1,-27.12 407.62,-20.14"/>
</g>
<!-- module.ec2_instance.aws_instance.redhat&#45;&gt;module.ec2_instance.data.aws_ami.redhat -->
<g id="edge6" class="edge">
<title>module.ec2_instance.aws_instance.redhat&#45;&gt;module.ec2_instance.data.aws_ami.redhat</title>
<path fill="none" stroke="black" d="M624.51,-72C616.76,-72 608.81,-72 600.92,-72"/>
<polygon fill="black" stroke="black" points="600.94,-68.5 590.94,-72 600.94,-75.5 600.94,-68.5"/>
</g>
<!-- module.security_group.aws_security_group.redhat_sg&#45;&gt;data.aws_vpc.default -->
<g id="edge7" class="edge">
<title>module.security_group.aws_security_group.redhat_sg&#45;&gt;data.aws_vpc.default</title>
<path fill="none" stroke="black" d="M210.88,-59.45C200.08,-58.08 189.18,-56.7 178.62,-55.37"/>
<polygon fill="black" stroke="black" points="179.19,-51.91 168.83,-54.13 178.31,-58.86 179.19,-51.91"/>
</g>
<!-- module.ssh_key.tls_private_key.ec2_key -->
<g id="node8" class="node">
<title>module.ssh_key.tls_private_key.ec2_key</title>
<polygon fill="none" stroke="black" points="175.25,-200 16,-200 16,-164 175.25,-164 175.25,-200"/>
<text xml:space="preserve" text-anchor="middle" x="95.62" y="-176.2" font-family="sans-serif" font-size="14.00">tls_private_key.ec2_key</text>
</g>
<!-- module.ssh_key.aws_key_pair.ec2_key_pair&#45;&gt;module.ssh_key.tls_private_key.ec2_key -->
<g id="edge8" class="edge">
<title>module.ssh_key.aws_key_pair.ec2_key_pair&#45;&gt;module.ssh_key.tls_private_key.ec2_key</title>
<path fill="none" stroke="black" d="M219.58,-166.45C208.7,-167.83 197.59,-169.23 186.71,-170.61"/>
<polygon fill="black" stroke="black" points="186.47,-167.11 176.99,-171.84 187.35,-174.05 186.47,-167.11"/>
</g>
<!-- module.ssh_key.local_file.private_key&#45;&gt;module.ssh_key.tls_private_key.ec2_key -->
<g id="edge9" class="edge">
<title>module.ssh_key.local_file.private_key&#45;&gt;module.ssh_key.tls_private_key.ec2_key</title>
<path fill="none" stroke="black" d="M240.22,-200.16C223.18,-198 204.71,-195.67 186.87,-193.41"/>
<polygon fill="black" stroke="black" points="187.43,-189.96 177.07,-192.17 186.55,-196.9 187.43,-189.96"/>
</g>
</g>
</svg>
